<svg width="40" height="40" fill="none" xmlns="http://www.w3.org/2000/svg"><g clip-path="url(#clip0)"><path d="M13.33 6.207L9.656 0h6.669L20 6.207h-6.67z" fill="#FB7B76"/><path d="M20 6.207L23.676 0h6.669l-3.676 6.207H20z" fill="#FF5364"/><path d="M27.159 6.559a1.38 1.38 0 0 0-1.338-1.042H14.178a1.366 1.366 0 0 0-1.338 1.041l-.993 3.973h16.304l-.994-3.972z" fill="#547580"/><path d="M20 40c8.76 0 15.862-7.102 15.862-15.862S28.76 8.276 20 8.276 4.138 15.378 4.138 24.138 11.239 40 20 40z" fill="#F0C419"/><path d="M34.407 17.51a15.859 15.859 0 0 0-19.849 21.531 15.863 15.863 0 1 1 19.849-21.53z" fill="#F3D55B"/><path d="M24.131 37.242a.69.69 0 0 1-.19-.027 15.517 15.517 0 0 1-2.86-1.134.69.69 0 0 1-.106-1.157 7.68 7.68 0 0 0 1.635-1.713.69.69 0 0 1 1.137.78 8.67 8.67 0 0 1-1.1 1.304c.545.233 1.104.43 1.673.594a.69.69 0 0 1-.189 1.353zm3.699-2.015c-.78 0-1.56-.07-2.327-.212a.69.69 0 0 1-.496-.976c.317-.66.539-1.362.657-2.086a.69.69 0 0 1 1.362.22 8.94 8.94 0 0 1-.418 1.61 11.6 11.6 0 0 0 1.662.056.69.69 0 1 1 .053 1.379 13.51 13.51 0 0 1-.493.009zm.9-2.537a.69.69 0 0 1-.688-.718 8.835 8.835 0 0 0-.18-2.184.69.69 0 1 1 1.35-.285c.115.55.185 1.107.208 1.668a10.52 10.52 0 0 0 1.508-.466.69.69 0 1 1 .505 1.283 11.7 11.7 0 0 1-2.604.695.671.671 0 0 1-.098.007zm1.975-3.17a.69.69 0 0 1-.659-.486 9.642 9.642 0 0 0-.886-2.018.69.69 0 0 1 1.19-.698c.282.481.526.984.73 1.504.44-.276.86-.583 1.256-.92a.69.69 0 0 1 .893 1.051 11.801 11.801 0 0 1-2.207 1.489.692.692 0 0 1-.317.077zm.845-3.635c-.017 0-.035 0-.053-.002a.69.69 0 0 1-.51-.29 9.523 9.523 0 0 0-1.446-1.629.69.69 0 0 1 .915-1.031c.41.364.79.76 1.138 1.183.337-.406.646-.836.923-1.286a.69.69 0 0 1 1.174.725 12.358 12.358 0 0 1-1.646 2.122.69.69 0 0 1-.494.208zm-.281-3.727a.69.69 0 0 1-.413-.137 9.063 9.063 0 0 0-1.86-1.077.69.69 0 1 1 .542-1.27c.5.215.98.468 1.44.758a11.28 11.28 0 0 0 .494-1.534.69.69 0 1 1 1.34.329c-.215.88-.525 1.734-.925 2.547a.691.691 0 0 1-.618.384zm-1.41-3.448a.687.687 0 0 1-.211-.034 9.06 9.06 0 0 0-2.134-.417.69.69 0 0 1 .097-1.376c.553.04 1.101.124 1.64.252a10.12 10.12 0 0 0-.038-1.605.69.69 0 1 1 1.372-.141c.094.906.08 1.821-.043 2.724a.69.69 0 0 1-.683.596zM15.87 37.242a.69.69 0 0 1-.19-1.353c.57-.163 1.128-.361 1.673-.594a8.689 8.689 0 0 1-1.1-1.304.69.69 0 0 1 1.137-.78 7.685 7.685 0 0 0 1.635 1.713.69.69 0 0 1-.107 1.157c-.913.472-1.87.852-2.859 1.134a.69.69 0 0 1-.19.027zm-3.7-2.015c-.164 0-.329-.003-.493-.01a.69.69 0 1 1 .052-1.378c.555.022 1.11.003 1.663-.056a8.94 8.94 0 0 1-.418-1.61.69.69 0 0 1 1.362-.22c.118.723.34 1.426.657 2.086a.69.69 0 0 1-.497.976 12.82 12.82 0 0 1-2.326.212zm-.901-2.537a.673.673 0 0 1-.098-.007 11.697 11.697 0 0 1-2.604-.695.69.69 0 1 1 .504-1.283c.49.193.995.349 1.509.466.023-.56.092-1.119.208-1.668a.69.69 0 0 1 1.35.285 8.84 8.84 0 0 0-.18 2.184.69.69 0 0 1-.69.718zm-1.974-3.17a.69.69 0 0 1-.317-.078 11.8 11.8 0 0 1-2.208-1.489.69.69 0 1 1 .893-1.051c.396.337.816.644 1.256.92.205-.52.449-1.023.731-1.504a.69.69 0 0 1 1.19.698 9.642 9.642 0 0 0-.886 2.019.69.69 0 0 1-.66.484zm-.845-3.635a.69.69 0 0 1-.495-.209 12.359 12.359 0 0 1-1.646-2.121.69.69 0 1 1 1.174-.725c.277.45.586.88.923 1.286a10.51 10.51 0 0 1 1.138-1.183.69.69 0 0 1 .916 1.03 9.52 9.52 0 0 0-1.447 1.63.69.69 0 0 1-.564.292zm.281-3.727a.69.69 0 0 1-.618-.384c-.4-.812-.71-1.667-.925-2.547a.69.69 0 1 1 1.34-.329c.127.523.293 1.036.494 1.535.459-.29.94-.544 1.44-.758a.69.69 0 1 1 .541 1.27 9.059 9.059 0 0 0-1.86 1.076.69.69 0 0 1-.412.137zm1.41-3.448a.69.69 0 0 1-.683-.597 11.436 11.436 0 0 1-.043-2.724.69.69 0 1 1 1.372.141 10.12 10.12 0 0 0-.038 1.605 10.316 10.316 0 0 1 1.64-.252.69.69 0 0 1 .097 1.376 9.06 9.06 0 0 0-2.134.417.687.687 0 0 1-.21.033z" fill="#F29C1F"/></g><defs><clipPath id="clip0"><path fill="#fff" d="M0 0h40v40H0z"/></clipPath></defs></svg>