<svg width="70" height="70" fill="none" xmlns="http://www.w3.org/2000/svg"><path d="M28.997 40.47a12.915 12.915 0 0 1-8.376-3.088 13.008 13.008 0 0 1-4.586-9.922v-3.572c0-.413.162-.801.454-1.093.291-.29.678-.45 1.09-.45h.003l9.353.02a1.056 1.056 0 0 1-.002 2.113h-.003l-8.782-.02v3.002c0 3.205 1.4 6.234 3.842 8.312a10.797 10.797 0 0 0 8.737 2.446l.328-.055a1.057 1.057 0 0 1 .364 2.08 12.911 12.911 0 0 1-2.423.227zm12.006 0c-.688 0-1.379-.055-2.068-.166a29.56 29.56 0 0 1-.355-.06 1.056 1.056 0 0 1 .365-2.081c.11.02.22.038.328.055 3.13.507 6.314-.384 8.737-2.446a10.898 10.898 0 0 0 3.842-8.312v-3l-8.783.02h-.002a1.056 1.056 0 0 1-.002-2.114l9.353-.02h.004a1.54 1.54 0 0 1 1.543 1.543v3.572a13.01 13.01 0 0 1-4.586 9.922 12.917 12.917 0 0 1-8.376 3.088z" fill="#FFB125"/><path d="M28.054 55.78h13.892c-5.754-7.297-5.154-17.814-5.154-17.814h-3.584s.6 10.517-5.154 17.814z" fill="#FED130"/><path d="M36.792 37.967h-3.584s.093 1.632-.146 4.058c-.456 4.622.69 9.285 3.396 13.061.168.234.342.466.522.694h4.966c-5.754-7.297-5.154-17.813-5.154-17.813z" fill="#F7BC14"/><path d="M24.52 19.317v9.217a17.16 17.16 0 0 0 6.982 13.815 5.897 5.897 0 0 0 6.996 0 17.16 17.16 0 0 0 6.98-13.815v-9.217H24.522z" fill="#FED130"/><path d="M40.49 19.317v9.217a17.16 17.16 0 0 1-6.982 13.815 5.894 5.894 0 0 1-1.003.595c1.928.9 4.23.703 5.992-.595a17.16 17.16 0 0 0 6.982-13.815v-9.217h-4.99z" fill="#F7BC14"/><path d="M46.23 20.757H23.77a.613.613 0 0 1-.613-.613v-2.54c0-.338.275-.613.613-.613h22.46c.339 0 .613.275.613.613v2.54a.613.613 0 0 1-.613.613z" fill="#FFB125"/><path d="M46.377 17H42v3.766h4.377a.613.613 0 0 0 .612-.613v-2.54a.613.613 0 0 0-.612-.613z" fill="#FF901D"/><path d="M46.917 60.234h-23.74a.494.494 0 0 1-.464-.666l1.763-4.776a.494.494 0 0 1 .464-.324h20.214c.207 0 .392.13.464.323l1.763 4.777a.494.494 0 0 1-.464.666z" fill="#FFB125"/><path d="M47.38 59.568l-1.762-4.776a.494.494 0 0 0-.464-.324h-4.822l2.128 5.766h4.457a.494.494 0 0 0 .464-.666z" fill="#FF901D"/></svg>