<svg width="22" height="22" fill="none" xmlns="http://www.w3.org/2000/svg"><path d="M18.961 3.417l-1.138.759-1.896-.38-1.138-.379-1.518.38-1.138-.38.759-1.517h1.517l1.487-.744a10.864 10.864 0 0 1 3.065 2.261zM10.239 1.9l-.38 1.137-1.138.38-1.138 1.896-1.896 1.138-2.656.38v1.138l.759.758v1.518l-1.138-.759-1.138-.759-.66-1.983A10.994 10.994 0 0 1 6.885.799l1.078.721 2.276.38zM11 12.521l-.379 1.897-1.517 1.517v1.138l-1.518 1.138v1.897l-1.138-.38-.758-1.896v-3.794l-1.897-.379-.759-1.517v-1.138l.76-.759L4.93 9.107l.759 1.517h2.655l1.138 1.897H11zm9.596-6.893a10.99 10.99 0 0 1-.607 11.71l-1.024-1.024v-1.517l-.76-1.518-.758-1.517v-1.517l-1.138-.759-1.517.38-2.656-1.139-.379-2.655 1.138-1.138h2.276l.759 1.138 2.276.38 2.276-.76.114-.064z" fill="#03AA6F"/><path d="M13.275 3.796l1.518-.379 1.138.38 1.896.379 1.138-.759a10.836 10.836 0 0 1 1.631 2.212l-.113.064-2.276.759-2.276-.38-.759-1.138h-2.276l-1.138 1.138.38 2.656 2.655 1.138 1.517-.38 1.138.76v1.517l.759 1.517.758 1.517v1.518l1.025 1.024c-3.504 4.964-10.368 6.148-15.331 2.645A11.001 11.001 0 0 1 .856 6.744l.66 1.984 1.138.758 1.138.76-.759.758v1.138l.759 1.517 1.897.38v3.793l.758 1.897 1.138.379v-1.897l1.518-1.138v-1.138l1.517-1.517.38-1.897H9.481l-1.138-1.897H5.689l-.76-1.517-1.137 1.138V8.728l-.759-.759V6.831l2.656-.38 1.896-1.137 1.138-1.897 1.138-.38.38-1.137-2.276-.38L6.887.8a11.001 11.001 0 0 1 9.013.356l-1.487.744h-1.517l-.759 1.517 1.138.38z" fill="#86DAF1"/></svg>