<svg width="22" height="22" fill="none" xmlns="http://www.w3.org/2000/svg"><g clip-path="url(#clip0)"><path d="M11 22c6.075 0 11-4.925 11-11S17.075 0 11 0 0 4.925 0 11s4.925 11 11 11z" fill="#F0F0F0"/><path d="M21.316 14.826c.442-1.192.684-2.48.684-3.826s-.242-2.635-.684-3.826H.684A10.976 10.976 0 0 0 0 11c0 1.345.242 2.634.684 3.826L11 15.783l10.316-.957z" fill="#0052B4"/><path d="M10.998 22c4.73 0 8.762-2.985 10.316-7.174H.682C2.237 19.015 6.27 22 10.998 22z" fill="#D80027"/></g><defs><clipPath id="clip0"><path fill="#fff" d="M0 0h22v22H0z"/></clipPath></defs></svg>