<svg width="52" height="52" fill="none" xmlns="http://www.w3.org/2000/svg"><g clip-path="url(#clip0)"><path fill-rule="evenodd" clip-rule="evenodd" d="M31.665 18.67c.113-.42.36-.92.55-1.207 1.365-2.568 4.497-3.309 6.932-1.866 2.435 1.442 3.31 4.498 1.867 6.932-.247.499-.57.863-.893 1.228-.324.365-.724.596-1.125.827a23.165 23.165 0 0 0-8.703 8.051c-1.232 2.492-2.042 5.096-2.355 7.946l-.385-.667c-.308-.534-.96-1.048-1.536-1.428a15.492 15.492 0 0 0-1.046-.731c-.36-.238-.719-.475-1.045-.732 1.982-1.5 3.733-3.4 4.985-5.548 1.858-3.565 2.797-7.489 2.626-11.485-.098-.477.015-.898.128-1.32zm-1.448 1.192l.108-1.664c.112-.42.225-.842.549-1.207-2.558 1.12-5.346 1.84-8.176 1.872-2.142-.01-4.381-.497-6.43-1.271-1.63-.662-3.257-1.324-4.83-2.197-.133-.066-.251-.128-.361-.185-.3-.158-.537-.282-.845-.364-.422-.113-.843-.226-1.32-.128-2.83.032-5.249 2.318-5.217 5.148.032 2.83 2.241 5.114 5.071 5.083.899.015 1.777-.314 2.578-.777 3.394-2.137 7.405-3.207 11.4-3.378 2.43.2 4.803.61 7.14 1.575a75.3 75.3 0 0 1 .333-2.507zM27.596 45.23c.338-1.264.178-2.774-.438-3.842l-.463-.801a7.515 7.515 0 0 0-1.382-1.16c-3.564-1.858-6.56-4.58-8.697-7.974-1.234-2.136-1.933-4.58-2.288-7.045a11.83 11.83 0 0 1-1.006.498c-.385.175-.788.36-1.207.601-.801.463-1.89.735-2.712.854 2.379 1.653 4.223 3.614 5.688 6.15 1.87 3.55 2.73 7.504 2.69 11.443-.036.554.139 1.166.313 1.777l.463.8c1.387 2.404 4.68 3.173 7.006 1.652.857-.673 1.694-1.69 2.033-2.953z" fill="#303030"/></g><defs><clipPath id="clip0"><path transform="rotate(60 32.955 .046)" fill="#fff" d="M32.955.046h38v38h-38z"/></clipPath></defs></svg>