<svg width="34" height="34" fill="none" xmlns="http://www.w3.org/2000/svg"><path d="M34 0H0v34h34V0z" fill="url(#paint0_radial)"/><path d="M33.91 33.112V.306A9.036 9.036 0 0 0 33.478 0H0v33.91h32.62c.462-.23.888-.5 1.29-.798z" fill="url(#paint1_radial)"/><path d="M17.011 4.178c-3.484 0-3.924.015-5.29.075-1.365.06-2.298.276-3.11.597a6.187 6.187 0 0 0-2.277 1.484A6.222 6.222 0 0 0 4.85 8.603c-.321.813-.537 1.745-.597 3.11-.06 1.366-.075 1.807-.075 5.29 0 3.485.015 3.925.075 5.29.06 1.366.276 2.299.597 3.112.328.843.768 1.56 1.477 2.275a6.311 6.311 0 0 0 2.276 1.485c.813.321 1.745.538 3.118.597 1.366.06 1.806.075 5.29.075 3.485 0 3.925-.015 5.29-.075 1.366-.06 2.298-.276 3.119-.597a6.222 6.222 0 0 0 2.268-1.485 6.41 6.41 0 0 0 1.485-2.275c.313-.813.53-1.746.597-3.111.06-1.366.074-1.806.074-5.29 0-3.485-.015-3.925-.074-5.29-.067-1.366-.284-2.298-.597-3.111a6.312 6.312 0 0 0-1.485-2.276 6.227 6.227 0 0 0-2.276-1.477c-.82-.321-1.753-.537-3.118-.597-1.366-.06-1.799-.075-5.283-.075zm-1.149 2.313h1.15c3.424 0 3.834.015 5.185.075 1.253.06 1.932.268 2.38.44a3.96 3.96 0 0 1 1.477.962c.448.448.724.88.963 1.478.179.455.387 1.134.44 2.38.06 1.35.074 1.76.074 5.185s-.015 3.828-.074 5.186c-.06 1.253-.269 1.932-.44 2.38a4.054 4.054 0 0 1-.963 1.477 4.025 4.025 0 0 1-1.477.963c-.455.179-1.134.387-2.38.44-1.35.06-1.761.074-5.186.074-3.424 0-3.835-.015-5.185-.074-1.254-.06-1.933-.269-2.38-.44a3.903 3.903 0 0 1-1.478-.963 4.024 4.024 0 0 1-.962-1.477c-.18-.455-.388-1.134-.44-2.38-.06-1.35-.075-1.761-.075-5.186 0-3.424.015-3.827.075-5.185.06-1.254.268-1.933.44-2.38.231-.597.515-1.03.962-1.478.448-.447.88-.723 1.478-.962.455-.18 1.134-.388 2.38-.44 1.186-.06 1.641-.075 4.036-.075zm7.998 2.134c-.85 0-1.537.686-1.537 1.537 0 .85.687 1.537 1.537 1.537.851 0 1.537-.687 1.537-1.537a1.53 1.53 0 0 0-1.537-1.537zm-6.849 1.798a6.585 6.585 0 0 0-6.588 6.588 6.585 6.585 0 0 0 6.588 6.588 6.585 6.585 0 0 0 6.588-6.588 6.585 6.585 0 0 0-6.588-6.588zm0 2.313a4.275 4.275 0 1 1-4.275 4.275 4.27 4.27 0 0 1 4.275-4.275z" fill="#fff"/><defs><radialGradient id="paint0_radial" cx="0" cy="0" r="1" gradientUnits="userSpaceOnUse" gradientTransform="translate(-2.619 24.97) scale(33.5477)"><stop stop-color="#FD5"/><stop offset=".1" stop-color="#FD5"/><stop offset=".5" stop-color="#FF543E"/><stop offset="1" stop-color="#C837AB"/></radialGradient><radialGradient id="paint1_radial" cx="0" cy="0" r="1" gradientUnits="userSpaceOnUse" gradientTransform="translate(-.109 -.727) scale(19.0237)"><stop stop-color="#3771C8"/><stop offset=".128" stop-color="#3771C8"/><stop offset="1" stop-color="#60F" stop-opacity="0"/></radialGradient></defs></svg>