<svg width="219" height="58" fill="none" xmlns="http://www.w3.org/2000/svg"><path d="M0 57.043h31.636v-4.947H5.526V.957H0v56.086zm34.873-28.482C34.873 45.076 47.127 58 63.545 58c16.498 0 28.672-12.924 28.672-29.439C92.217 12.525 80.043 0 63.545 0 47.127 0 34.873 12.525 34.873 28.561zm5.766 0c0-13.243 9.771-23.375 22.906-23.375 13.215 0 22.906 10.132 22.906 23.375 0 13.722-9.691 24.253-22.906 24.253-13.135 0-22.906-10.53-22.906-24.253zm60.404.399c0 16.674 12.173 29.04 27.631 29.04 7.448 0 14.336-3.191 18.34-7.58h.16s-.08 1.198-.08 2.394v4.229h5.046V30.237h-14.817v4.946h9.611v9.494c-4.405 4.946-10.972 8.137-17.7 8.137-12.894 0-22.425-10.132-22.425-23.934 0-13.243 9.211-23.694 22.906-23.694 6.007 0 12.814 2.313 16.739 5.584l3.043-4.228C143.971 2.074 136.523 0 129.475 0c-16.179 0-28.432 12.765-28.432 28.96zm60.613-.399c0 16.515 12.253 29.439 28.672 29.439C206.826 58 219 45.076 219 28.561 219 12.525 206.826 0 190.328 0c-16.419 0-28.672 12.525-28.672 28.561zm5.766 0c0-13.243 9.771-23.375 22.906-23.375 13.215 0 22.906 10.132 22.906 23.375 0 13.722-9.691 24.253-22.906 24.253-13.135 0-22.906-10.53-22.906-24.253z" fill="#fff"/></svg>