<svg width="70" height="70" fill="none" xmlns="http://www.w3.org/2000/svg"><g clip-path="url(#clip0)"><path d="M5.029 19.471a44.979 44.979 0 0 1 5.319-4.958c.225-.178.55.035.474.313-1.074 3.949-2.951 7.851-5.845 10.753-.13-2.031-.132-4.08.052-6.108zm-.052 6.109a44.965 44.965 0 0 1-4.4-6.351c-.148-.258-.542-.166-.557.13-.233 4.61 1.528 10.005 5.82 12.181-.428-1.96-.736-3.956-.863-5.96zm.863 5.958a43.23 43.23 0 0 1 3.608-6.127.3.3 0 0 1 .543.158c.168 3.982-.516 8.192-2.424 11.688-.707-1.86-1.304-3.772-1.727-5.718zm1.728 5.72a46.633 46.633 0 0 1-6.053-4.631c-.22-.198-.563.009-.49.294 1.146 4.404 4.421 8.923 9.084 9.721a40.32 40.32 0 0 1-2.541-5.384zm2.541 5.382c.38-2.36.923-4.611 1.68-6.862.09-.268.47-.273.565-.007 1.323 3.736 1.86 7.952 1.06 11.825-1.213-1.57-2.336-3.221-3.305-4.955zm3.306 4.958a47.572 47.572 0 0 1-7.123-2.651c-.267-.125-.535.173-.381.424 2.379 3.88 6.833 7.24 11.525 6.66-1.44-1.38-2.801-2.853-4.02-4.433z" fill="#FF901D"/><path d="M17.434 52.03a41.652 41.652 0 0 1-.414-7.081c.008-.283.37-.399.538-.171 2.37 3.212 4.138 7.115 4.56 11.071-1.647-1.158-3.23-2.423-4.683-3.819zm47.537-32.559a44.98 44.98 0 0 0-5.319-4.958.3.3 0 0 0-.475.313c1.075 3.949 2.952 7.851 5.846 10.753.13-2.031.132-4.08-.052-6.108zm.052 6.109a44.966 44.966 0 0 0 4.4-6.351c.148-.258.541-.166.556.13.234 4.61-1.528 10.005-5.82 12.181.428-1.96.736-3.956.864-5.96z" fill="#FF901D"/><path d="M64.16 31.538a43.232 43.232 0 0 0-3.608-6.127.3.3 0 0 0-.543.158c-.168 3.982.516 8.192 2.424 11.688.707-1.86 1.304-3.772 1.727-5.718zm-1.728 5.72a46.64 46.64 0 0 0 6.053-4.631c.22-.198.563.009.489.294-1.145 4.404-4.42 8.923-9.084 9.721a40.202 40.202 0 0 0 2.542-5.384z" fill="#FF901D"/><path d="M59.891 42.64a42.552 42.552 0 0 0-1.68-6.862c-.09-.268-.47-.273-.564-.007-1.324 3.736-1.86 7.952-1.062 11.825 1.214-1.57 2.337-3.221 3.306-4.955zm-3.307 4.958a47.57 47.57 0 0 0 7.124-2.651c.267-.125.535.173.381.424-2.379 3.88-6.833 7.24-11.525 6.66 1.44-1.38 2.801-2.853 4.02-4.433z" fill="#FF901D"/><path d="M52.566 52.03c.337-2.378.48-4.697.414-7.081-.008-.283-.37-.399-.538-.171-2.37 3.212-4.137 7.115-4.56 11.071 1.647-1.158 3.23-2.423 4.684-3.819z" fill="#FF901D"/><path d="M27.905 58.02c-1.894-.934-3.625-1.95-5.145-3.02h-.001c-1.697-1.193-3.227-2.44-4.547-3.706l-.001-.001c-1.482-1.42-2.796-2.869-3.905-4.306v-.001c-1.251-1.619-2.332-3.238-3.212-4.813l-.002-.002c-.998-1.784-1.829-3.542-2.467-5.226l-.001-.002c-.73-1.92-1.294-3.788-1.678-5.553-.441-2.022-.723-3.969-.839-5.786v-.002c-.134-2.093-.117-4.088.05-5.93.002-.021.002-.044.002-.066.22-2.847.748-5.7 1.57-8.484a1.056 1.056 0 1 0-2.027-.598 43.38 43.38 0 0 0-1.657 9.013c-.002.02-.001.04-.002.06A40.942 40.942 0 0 0 4 25.738c.122 1.923.418 3.973.881 6.097l.001.005c.406 1.867 1 3.837 1.768 5.855.676 1.782 1.55 3.635 2.6 5.51l.002.002c.93 1.665 2.069 3.372 3.382 5.072l.002.001c1.171 1.519 2.555 3.045 4.112 4.537 1.399 1.342 3.012 2.658 4.797 3.912 1.61 1.133 3.435 2.205 5.426 3.187a1.053 1.053 0 0 0 1.415-.48 1.057 1.057 0 0 0-.48-1.415zm38.052-38.422l-.001-.061a43.364 43.364 0 0 0-1.658-9.013 1.057 1.057 0 0 0-2.026.598 41.282 41.282 0 0 1 1.569 8.484c0 .022 0 .045.002.067.167 1.84.184 3.835.05 5.929v.002c-.115 1.816-.397 3.763-.838 5.785-.384 1.766-.949 3.634-1.679 5.554v.002a39.472 39.472 0 0 1-2.47 5.227c-.88 1.576-1.96 3.195-3.211 4.814v.001h-.001c-1.108 1.437-2.422 2.885-3.905 4.305v.001c-1.32 1.267-2.85 2.514-4.547 3.706L47.24 55c-1.52 1.07-3.251 2.086-5.145 3.02a1.056 1.056 0 1 0 .935 1.894c1.99-.981 3.816-2.053 5.425-3.185l.001-.001c1.785-1.255 3.399-2.57 4.796-3.911l.002-.002a41.305 41.305 0 0 0 4.112-4.537h.001c1.314-1.702 2.453-3.409 3.384-5.074l.001-.003c1.05-1.874 1.924-3.727 2.599-5.507a41.402 41.402 0 0 0 1.767-5.852v-.001c.464-2.127.761-4.18.883-6.103v-.005c.139-2.157.123-4.22-.044-6.135z" fill="#F7BC14"/><path d="M28.997 40.47a12.915 12.915 0 0 1-8.376-3.088 13.008 13.008 0 0 1-4.586-9.922v-3.572c0-.413.162-.801.454-1.093.291-.29.678-.45 1.09-.45h.003l9.353.02a1.056 1.056 0 0 1-.002 2.113h-.003l-8.782-.02v3.002c0 3.205 1.4 6.234 3.842 8.312a10.797 10.797 0 0 0 8.737 2.446l.328-.055a1.057 1.057 0 0 1 .364 2.08 12.911 12.911 0 0 1-2.423.227zm12.006 0c-.688 0-1.379-.055-2.068-.166a29.56 29.56 0 0 1-.355-.06 1.056 1.056 0 0 1 .365-2.081c.11.02.22.038.328.055 3.13.507 6.314-.384 8.737-2.446a10.898 10.898 0 0 0 3.842-8.312v-3l-8.783.02h-.002a1.056 1.056 0 0 1-.002-2.114l9.353-.02h.004a1.54 1.54 0 0 1 1.543 1.543v3.572a13.01 13.01 0 0 1-4.586 9.922 12.917 12.917 0 0 1-8.376 3.088z" fill="#FFB125"/><path d="M28.054 55.78h13.892c-5.754-7.297-5.154-17.814-5.154-17.814h-3.584s.6 10.517-5.154 17.814z" fill="#FED130"/><path d="M36.792 37.967h-3.584s.093 1.632-.146 4.058c-.456 4.622.69 9.285 3.396 13.061.168.234.342.466.522.694h4.966c-5.754-7.297-5.154-17.813-5.154-17.813z" fill="#F7BC14"/><path d="M24.52 19.317v9.217a17.16 17.16 0 0 0 6.982 13.815 5.897 5.897 0 0 0 6.996 0 17.16 17.16 0 0 0 6.98-13.815v-9.217H24.522z" fill="#FED130"/><path d="M40.49 19.317v9.217a17.16 17.16 0 0 1-6.982 13.815 5.894 5.894 0 0 1-1.003.595c1.928.9 4.23.703 5.992-.595a17.16 17.16 0 0 0 6.982-13.815v-9.217h-4.99z" fill="#F7BC14"/><path d="M46.23 20.757H23.77a.613.613 0 0 1-.613-.613v-2.54c0-.338.275-.613.613-.613h22.46c.339 0 .613.275.613.613v2.54a.613.613 0 0 1-.613.613z" fill="#FFB125"/><path d="M46.23 16.991h-4.377v3.766h4.377a.613.613 0 0 0 .613-.613v-2.54a.613.613 0 0 0-.613-.613z" fill="#FF901D"/><path d="M46.917 60.234h-23.74a.494.494 0 0 1-.464-.666l1.763-4.776a.494.494 0 0 1 .464-.324h20.214c.207 0 .392.13.464.323l1.763 4.777a.494.494 0 0 1-.464.666z" fill="#FFB125"/><path d="M47.38 59.568l-1.762-4.776a.494.494 0 0 0-.464-.324h-4.822l2.128 5.766h4.457a.494.494 0 0 0 .464-.666z" fill="#FF901D"/></g><defs><clipPath id="clip0"><path fill="#fff" d="M0 0h70v70H0z"/></clipPath></defs></svg>