<svg width="22" height="22" fill="none" xmlns="http://www.w3.org/2000/svg"><path d="M11 22c6.075 0 11-4.925 11-11S17.075 0 11 0 0 4.925 0 11s4.925 11 11 11z" fill="#0052B4"/><path d="M11 4.305l.355 1.096h1.153l-.932.677.356 1.096-.933-.677-.932.677.356-1.096-.932-.677h1.152L11 4.305zM6.27 6.266l1.026.523.815-.815-.18 1.139 1.027.523-1.138.18-.18 1.138-.524-1.026-1.138.18.815-.815-.524-1.027zM4.307 11l1.096-.356V9.492l.678.932 1.096-.356-.678.932.678.933-1.096-.356-.678.932v-1.152L4.307 11zm1.963 4.735l.523-1.027-.815-.815 1.138.18.523-1.027.18 1.139 1.139.18-1.027.523.18 1.138-.815-.815-1.027.524zM11 17.696l-.357-1.096H9.491l.932-.677-.356-1.096.932.677.933-.677-.356 1.096.932.677h-1.152l-.357 1.096zm4.735-1.961l-1.027-.523-.815.814.18-1.138-1.027-.523 1.139-.18.18-1.139.523 1.027 1.138-.18-.815.815.524 1.027zM17.699 11l-1.096.357v1.152l-.678-.932-1.096.356.678-.933-.678-.932 1.096.356.678-.932v1.152l1.096.356zm-1.964-4.734l-.524 1.027.815.815-1.138-.18-.523 1.026-.18-1.138-1.139-.18 1.027-.524-.18-1.138.815.815 1.027-.523z" fill="#FFDA44"/></svg>