<svg width="34" height="34" fill="none" xmlns="http://www.w3.org/2000/svg"><path d="M34 0H0v34h34V0z" fill="#4C77A6"/><path d="M9.595 10.983c.739 1.82 1.671 3.536 2.902 5.073.164.202.366.388.582.537.314.217.612.142.746-.224.135-.38.261-1.149.269-1.551.022-1.045 0-1.724-.06-2.768-.037-.665-.276-1.254-1.253-1.433-.306-.052-.329-.306-.135-.552.403-.515.97-.597 1.582-.634.993-.052 1.985-.008 2.977 0 .403 0 .814.037 1.209.127.522.111.798.477.88.984.045.262.067.53.06.799-.022 1.134-.082 2.275-.097 3.41-.007.447.03.902.12 1.335.134.604.544.761.97.32.537-.559 1.007-1.178 1.447-1.812.806-1.157 1.41-2.425 1.925-3.73.268-.672.47-.822 1.2-.822 1.366 0 2.732-.007 4.097 0 .239 0 .493.023.724.098.373.119.515.417.433.805-.202.896-.687 1.664-1.21 2.395-.835 1.18-1.708 2.328-2.566 3.492a3.78 3.78 0 0 0-.29.47c-.322.575-.3.903.17 1.38.74.769 1.538 1.485 2.254 2.269a13.455 13.455 0 0 1 1.418 1.843c.522.828.201 1.604-.776 1.745-.612.09-3.619 0-3.775 0a2.931 2.931 0 0 1-2.09-.835c-.634-.612-1.208-1.284-1.82-1.918a5.731 5.731 0 0 0-.59-.537c-.5-.38-.984-.298-1.216.291-.201.5-.373 1.82-.38 1.932-.045.59-.418.963-1.075 1-1.902.105-3.752-.112-5.469-1.03-1.454-.783-2.618-1.887-3.633-3.17-1.604-2.045-2.865-4.29-4.022-6.603-.06-.12-1.23-2.612-1.26-2.724-.105-.395-.008-.768.328-.902.209-.083 4.066 0 4.126 0 .619.044 1.037.305 1.298.94z" fill="#fff"/></svg>